<svg width="64" height="64" viewBox="0 0 64 64" fill="none" xmlns="http://www.w3.org/2000/svg">
<g id="Frame" clip-path="url(#clip0_585_1094)">
<path id="Vector" d="M54.6098 9.37258C48.6087 3.37142 40.4693 0 31.9824 0C23.4955 0 15.3562 3.37142 9.355 9.37258C3.35384 15.3737 -0.0175781 23.5131 -0.0175781 32C-0.0175781 40.4869 3.35384 48.6262 9.355 54.6274C15.3562 60.6286 23.4955 64 31.9824 64C40.4693 64 48.6087 60.6286 54.6098 54.6274C60.611 48.6262 63.9824 40.4869 63.9824 32C63.9824 23.5131 60.611 15.3737 54.6098 9.37258ZM51.9713 51.789C46.7229 57.0374 39.6046 59.9859 32.1823 59.9859C24.76 59.9859 17.6417 57.0374 12.3933 51.789C7.14495 46.5406 4.19644 39.4223 4.19644 32C4.19644 24.5777 7.14495 17.4594 12.3933 12.211C17.6417 6.96264 24.76 4.01413 32.1823 4.01413C39.6046 4.01413 46.7229 6.96264 51.9713 12.211C57.2197 17.4594 60.1682 24.5777 60.1682 32C60.1682 39.4223 57.2197 46.5406 51.9713 51.789Z" fill="black" fill-opacity="0.2"/>
<path id="Vector_2" d="M47.9733 30.0011H33.9811V16.0089C33.9811 15.4788 33.7705 14.9703 33.3956 14.5955C33.0207 14.2206 32.5123 14.01 31.9822 14.01C31.452 14.01 30.9436 14.2206 30.5688 14.5955C30.1939 14.9703 29.9833 15.4788 29.9833 16.0089V30.0011H15.9911C15.4609 30.0011 14.9525 30.2117 14.5776 30.5866C14.2028 30.9614 13.9922 31.4699 13.9922 32C13.9922 32.5301 14.2028 33.0386 14.5776 33.4134C14.9525 33.7883 15.4609 33.9989 15.9911 33.9989H29.9833V47.9911C29.9833 48.5212 30.1939 49.0297 30.5688 49.4045C30.9436 49.7794 31.452 49.99 31.9822 49.99C32.5123 49.99 33.0207 49.7794 33.3956 49.4045C33.7705 49.0297 33.9811 48.5212 33.9811 47.9911V33.9989H47.9733C48.5034 33.9989 49.0119 33.7883 49.3867 33.4134C49.7616 33.0386 49.9722 32.5301 49.9722 32C49.9722 31.4699 49.7616 30.9614 49.3867 30.5866C49.0119 30.2117 48.5034 30.0011 47.9733 30.0011Z" fill="black" fill-opacity="0.2"/>
</g>
<defs>
<clipPath id="clip0_585_1094">
<rect width="64" height="64" fill="white"/>
</clipPath>
</defs>
</svg>
