<svg width="32" height="32" viewBox="0 0 32 32" fill="none" xmlns="http://www.w3.org/2000/svg">
<g id="Frame">
<g id="Group 2586">
<rect id="Rectangle 5439" x="7" y="7" width="18" height="18" rx="4" fill="white"/>
<path id="Vector" d="M11.9722 12.2222H11.4167C11.3062 12.2222 11.2002 12.1783 11.122 12.1002C11.0439 12.022 11 11.9161 11 11.8056C11 11.695 11.0439 11.5891 11.122 11.5109C11.2002 11.4328 11.3062 11.3889 11.4167 11.3889H20.5833C20.6938 11.3889 20.7998 11.4328 20.878 11.5109C20.9561 11.5891 21 11.695 21 11.8056C21 11.9161 20.9561 12.022 20.878 12.1002C20.7998 12.1783 20.6938 12.2222 20.5833 12.2222H12.8056V19.5833C12.8056 19.6745 12.8235 19.7648 12.8584 19.8491C12.8933 19.9333 12.9445 20.0099 13.009 20.0744C13.0734 20.1389 13.15 20.19 13.2342 20.2249C13.3185 20.2598 13.4088 20.2778 13.5 20.2778H18.5C18.5912 20.2778 18.6815 20.2598 18.7658 20.2249C18.85 20.19 18.9266 20.1389 18.991 20.0744C19.0555 20.0099 19.1067 19.9333 19.1416 19.8491C19.1765 19.7648 19.1944 19.6745 19.1944 19.5833V13.4722C19.1944 13.3617 19.2383 13.2557 19.3165 13.1776C19.3946 13.0995 19.5006 13.0556 19.6111 13.0556C19.7216 13.0556 19.8276 13.0995 19.9057 13.1776C19.9839 13.2557 20.0278 13.3617 20.0278 13.4722V19.5833C20.0278 20.4271 19.3438 21.1111 18.5 21.1111H13.5C12.6562 21.1111 11.9722 20.4271 11.9722 19.5833V12.2222ZM14.8889 10.8333C14.7784 10.8333 14.6724 10.7894 14.5943 10.7113C14.5161 10.6332 14.4722 10.5272 14.4722 10.4167C14.4722 10.3062 14.5161 10.2002 14.5943 10.122C14.6724 10.0439 14.7784 10 14.8889 10H17.1111C17.2216 10 17.3276 10.0439 17.4057 10.122C17.4839 10.2002 17.5278 10.3062 17.5278 10.4167C17.5278 10.5272 17.4839 10.6332 17.4057 10.7113C17.3276 10.7894 17.2216 10.8333 17.1111 10.8333H14.8889ZM14.4722 14.5833C14.4722 14.4728 14.5161 14.3668 14.5943 14.2887C14.6724 14.2106 14.7784 14.1667 14.8889 14.1667C14.9994 14.1667 15.1054 14.2106 15.1835 14.2887C15.2617 14.3668 15.3056 14.4728 15.3056 14.5833V17.9167C15.3056 18.0272 15.2617 18.1332 15.1835 18.2113C15.1054 18.2894 14.9994 18.3333 14.8889 18.3333C14.7784 18.3333 14.6724 18.2894 14.5943 18.2113C14.5161 18.1332 14.4722 18.0272 14.4722 17.9167V14.5833ZM16.6944 14.5833C16.6944 14.4728 16.7383 14.3668 16.8165 14.2887C16.8946 14.2106 17.0006 14.1667 17.1111 14.1667C17.2216 14.1667 17.3276 14.2106 17.4057 14.2887C17.4839 14.3668 17.5278 14.4728 17.5278 14.5833V17.9167C17.5278 18.0272 17.4839 18.1332 17.4057 18.2113C17.3276 18.2894 17.2216 18.3333 17.1111 18.3333C17.0006 18.3333 16.8946 18.2894 16.8165 18.2113C16.7383 18.1332 16.6944 18.0272 16.6944 17.9167V14.5833Z" fill="#BA2636"/>
</g>
</g>
</svg>
