<svg width="254" height="122" viewBox="0 0 254 122" fill="none" xmlns="http://www.w3.org/2000/svg">
<path d="M33.7382 107.117C34.5382 107.917 38.0715 116.117 39.7382 120.117H24.7382C21.7382 114.284 16.6382 102.217 20.2382 100.617C24.7382 98.6172 32.7382 106.117 33.7382 107.117Z" fill="#D9D9D9"/>
<path d="M31.7383 118.617C30.9049 115.95 28.6383 110.117 26.2383 108.117" stroke="white"/>
<path d="M220.516 106.358L214.5 119.78H219.5C220.333 118.946 222.2 116.28 223 112.28C223.599 109.282 222.739 107.221 221.849 106.095C221.466 105.61 220.769 105.794 220.516 106.358Z" fill="#D9D9D9"/>
<path d="M240 99.2797C235.2 99.2797 223.333 112.946 218 119.78H235.5C239 112.946 244.8 99.2797 240 99.2797Z" fill="#D9D9D9"/>
<path d="M225 119.78C227 116.446 231.5 109.48 233.5 108.28" stroke="white"/>
<path d="M122 55.2799L122 60.2799" stroke="#282828"/>
<path d="M130 56.2799L130 60.2799" stroke="#282828"/>
<path d="M112.5 61.7799C113.667 65.2799 118.2 72.2799 127 72.2799C135.8 72.2799 139.333 65.2799 140 61.7799" stroke="#282828"/>
<path d="M79 107.28L72 105.78M173 108.78L180 107.28M79 95.2799L78 120.28M171 95.2799L173 120.28" stroke="#282828"/>
<path d="M200.5 76.28H243C244.333 77.28 246.9 80.18 246.5 83.78C246 88.28 245 90.28 238.5 90.28C233.3 90.28 225.333 90.28 222 90.28M226 90.78L213.5 120.28" stroke="#282828"/>
<path d="M178.5 112.78C181.5 105.78 188 90.88 190 87.28C192.5 82.78 198 74.28 202 73.28C206 72.28 218.5 73.78 219.5 72.78C220.5 71.78 228.5 66.78 231.5 68.78C233.9 70.38 233.5 72.78 233 73.78H248.257C249.053 73.78 249.816 74.096 250.379 74.6586L251.999 76.2792C252.329 76.6085 252.581 77.0085 252.7 77.459C253.009 78.6345 253.327 80.4738 253 81.78C252.5 83.78 251.5 85.78 249.5 86.78C247.9 87.58 246.167 87.4466 245.5 87.28" stroke="#282828"/>
<path d="M218 74.28H233" stroke="#282828"/>
<path d="M53.6376 76.28H11.1376C9.80424 77.28 7.23757 80.18 7.63757 83.78C8.13757 88.28 9.13757 90.28 15.6376 90.28C20.8376 90.28 28.8042 90.28 32.1376 90.28M28.1376 90.78L40.6376 120.28" stroke="#282828"/>
<path d="M75.6376 112.78C72.6376 105.78 66.1376 90.88 64.1376 87.28C61.6376 82.78 56.1376 74.28 52.1376 73.28C48.1376 72.28 35.6376 73.78 34.6376 72.78C33.6376 71.78 25.6376 66.78 22.6376 68.78C20.2376 70.38 20.6376 72.78 21.1376 73.78H5.88021C5.08456 73.78 4.3215 74.096 3.75889 74.6586L2.13835 76.2792C1.80902 76.6085 1.55616 77.0085 1.43775 77.459C1.12871 78.6345 0.811034 80.4738 1.13757 81.78C1.63757 83.78 2.63757 85.78 4.63757 86.78C6.23757 87.58 7.97091 87.4466 8.63757 87.28" stroke="#282828"/>
<path d="M36.1376 74.28H21.1376" stroke="#282828"/>
<path d="M6.5 121.28H248" stroke="#282828"/>
<path d="M115 41.7799C114.833 44.4466 115 50.2799 117 52.2799C119.5 54.7799 122 56.2799 126.5 56.2799C131 56.2799 134 54.2799 135.5 52.2799C137 50.2799 138.5 48.2799 138.5 45.2799C138.5 42.8799 138.5 39.9466 138.5 38.7799" stroke="#282828"/>
<path d="M119.5 25.7799C124.7 22.9799 129.667 23.2799 131.5 23.7799C133 24.0375 135.5 26.7799 136 28.2799C136.5 29.7799 137 31.2799 139.5 32.2799C141.5 33.0799 141.333 37.2799 141 39.2799C140 39.6133 138 40.1799 138 39.7799C138 39.2799 137.5 39.7799 136.5 39.7799C135.5 39.7799 133.5 42.2799 134 40.7799C134.5 39.2799 133.5 38.2799 133 38.2799C132.5 38.2799 126.5 42.2799 125.5 42.2799H115C113.5 42.2799 113 40.7799 112 38.2799C111 35.7799 113 29.2799 119.5 25.7799Z" fill="#282828"/>
<path d="M110.5 43.7799C110.5 42.1231 111.843 40.7799 113.5 40.7799H114.5V46.7799H113.5C111.843 46.7799 110.5 45.4368 110.5 43.7799Z" stroke="#282828"/>
<path d="M142.5 43.7799C142.5 42.1231 141.157 40.7799 139.5 40.7799H138.5V46.7799H139.5C141.157 46.7799 142.5 45.4368 142.5 43.7799Z" stroke="#282828"/>
<path d="M125.5 42.2799L123.5 48.2799C123.667 48.6132 124.2 49.2799 125 49.2799C125.8 49.2799 127.131 49.2799 127.696 49.2799" stroke="#282828"/>
<circle cx="120.5" cy="45.7799" r="1.5" fill="#282828"/>
<circle cx="130.5" cy="45.7799" r="1.5" fill="#282828"/>
<path fill-rule="evenodd" clip-rule="evenodd" d="M130 60.2343C134.226 60.0561 139.723 59.3831 145.331 58.6965C146.656 58.5343 147.987 58.3713 149.309 58.2139C153.245 57.7453 157.108 57.3249 160.515 57.1149C163.931 56.9043 166.85 56.9082 168.913 57.2723C170.477 57.5483 172.398 58.697 174.516 60.4739C176.619 62.2377 178.855 64.5685 181.046 67.1182C185.427 72.2167 189.588 78.1465 192.079 82.0489L192.922 81.5109C190.412 77.58 186.224 71.6098 181.804 66.4665C179.595 63.8955 177.319 61.52 175.159 59.7078C173.014 57.9086 170.923 56.6115 169.087 56.2875C166.9 55.9016 163.882 55.9055 160.454 56.1168C157.017 56.3287 153.13 56.752 149.191 57.2209C147.856 57.3798 146.516 57.5439 145.185 57.7067C139.589 58.3916 134.163 59.0557 130 59.2336V60.2343ZM122 60.0893V59.0876C118.624 58.8867 115.093 58.5469 111.238 58.1574C110.649 58.0979 110.052 58.0372 109.447 57.9757L109.446 57.9757C103.703 57.3918 97.2305 56.7338 89.5294 56.2808C82.5118 55.868 75.9614 60.0781 70.6712 65.3766C65.3673 70.689 61.238 77.1859 59.0529 81.5563L59.9473 82.0035C62.0954 77.7072 66.1662 71.3041 71.3789 66.0832C76.6054 60.8484 82.8884 56.8918 89.4707 57.279C97.1495 57.7307 103.602 58.3867 109.346 58.9706L109.346 58.9706C109.951 59.0321 110.548 59.0928 111.137 59.1524C115.012 59.5438 118.579 59.8873 122 60.0893Z" fill="#282828"/>
<path d="M184.084 40.2799C185.918 41.1132 189.684 42.6799 190.084 42.2799C190.584 41.7799 189.584 36.2799 190.084 35.7799C190.584 35.2799 195.584 38.2799 196.584 37.7799C197.584 37.2799 195.584 31.7799 196.584 31.2799C197.384 30.8799 200.918 32.4466 202.584 33.2799" stroke="#142AF3"/>
<path d="M63.0845 56.7799C63.5845 55.4466 64.1845 52.6799 62.5845 52.2799C60.5845 51.7799 59.0845 55.2799 57.5845 54.2799C56.0845 53.2799 58.5845 49.7799 57.0845 48.7799C55.5845 47.7799 53.5845 52.2799 52.0845 51.2799C50.8845 50.4799 50.9179 47.6132 51.0845 46.2799" stroke="#282828"/>
<path d="M86.3076 5.41373C86.3105 4.64732 87.1391 4.16895 87.8042 4.54962L90.0535 5.83683C90.2972 5.97628 90.5883 6.00687 90.8556 5.92113L93.3234 5.1297C94.0532 4.89565 94.7642 5.53584 94.6077 6.28611L94.0786 8.82308C94.0212 9.09792 94.0821 9.3842 94.2462 9.61196L95.7615 11.7144C96.2096 12.3361 95.8205 13.2102 95.0586 13.2932L92.4823 13.5739C92.2032 13.6043 91.9497 13.7507 91.7838 13.9772L90.2525 16.068C89.7997 16.6863 88.8482 16.5863 88.5338 15.8873L87.4707 13.5238C87.3555 13.2678 87.138 13.072 86.8713 12.9842L84.4097 12.1739C83.6817 11.9343 83.4828 10.9985 84.0504 10.4835L85.9696 8.74205C86.1776 8.5534 86.2966 8.28603 86.2977 8.00528L86.3076 5.41373Z" fill="#142AF3"/>
</svg>
