<svg width="400" height="400" viewBox="0 0 400 400" fill="none" xmlns="http://www.w3.org/2000/svg">
<rect width="400" height="400" fill="url(#paint0_radial_402_3)"/>
<path d="M111.759 254.315L96.8344 213.31L124.825 203.122L127.755 211.171L109.675 217.752L112.735 226.161L129.033 220.229L131.97 228.298L115.672 234.23L121.67 250.708L111.759 254.315ZM148.489 240.946L137.837 244.823L136.748 198.783L149.942 193.98L178.702 229.95L168.05 233.827L147.256 206.658L146.935 206.775L148.489 240.946ZM141.194 225.326L163.458 217.223L166.198 224.751L143.934 232.854L141.194 225.326ZM178.103 183.731L193.028 224.736L183.117 228.343L168.192 187.338L178.103 183.731ZM199.249 222.471L184.325 181.466L194.236 177.859L206.231 210.815L223.289 204.606L226.219 212.655L199.249 222.471ZM231.35 210.788L216.425 169.783L245.016 159.376L247.946 167.425L229.265 174.224L232.326 182.633L249.545 176.366L252.482 184.435L235.263 190.702L238.331 199.132L257.011 192.332L259.941 200.381L231.35 210.788ZM281.304 192.606L266.148 198.122L251.223 157.117L266.36 151.608C270.537 150.087 274.433 149.599 278.048 150.143C281.67 150.669 284.861 152.168 287.62 154.64C290.375 157.099 292.527 160.458 294.077 164.716C295.631 168.987 296.146 172.956 295.622 176.624C295.111 180.287 293.639 183.49 291.207 186.235C288.77 188.966 285.469 191.09 281.304 192.606ZM272.983 186.066L277.848 184.295C280.144 183.459 281.945 182.365 283.252 181.013C284.567 179.642 285.311 177.928 285.484 175.87C285.666 173.793 285.219 171.28 284.146 168.33C283.072 165.38 281.803 163.182 280.339 161.734C278.87 160.274 277.188 159.45 275.291 159.264C273.402 159.059 271.283 159.384 268.934 160.24L264.209 161.959L272.983 186.066Z" fill="#9D0000" fill-opacity="0.6"/>
<rect x="54.8996" y="198.389" width="271" height="101" rx="16" transform="rotate(-20 54.8996 198.389)" stroke="#9D0000" stroke-opacity="0.6" stroke-width="8"/>
<defs>
<radialGradient id="paint0_radial_402_3" cx="0" cy="0" r="1" gradientUnits="userSpaceOnUse" gradientTransform="translate(200 200) rotate(45.8758) scale(1110.29)">
<stop stop-color="#2F2F2F"/>
<stop offset="0.324516"/>
<stop offset="1"/>
</radialGradient>
</defs>
</svg>
